<svg width="68" height="63" viewBox="0 0 68 63" fill="none" xmlns="http://www.w3.org/2000/svg">
<path d="M10.642 56.4089H-0.000976562V62.9868H10.642V56.4089Z" fill="#FF0000"/>
<path d="M10.642 48.6345H-0.000976562V56.4118H10.642V48.6345Z" fill="#FC5166"/>
<path d="M29.6303 52.8701H18.9873V62.9896H29.6303V52.8701Z" fill="#FF0000"/>
<path d="M29.6303 42.7476H18.9873V52.867H29.6303V42.7476Z" fill="#FC5166"/>
<path d="M48.6185 49.2864H37.9756V62.9894H48.6185V49.2864Z" fill="#FF0000"/>
<path d="M48.6185 35.5806H37.9756V49.2836H48.6185V35.5806Z" fill="#FC5166"/>
<path d="M67.6078 23.6184H56.9648V43.304H67.6078V23.6184Z" fill="#FC5166"/>
<path d="M67.6078 43.304H56.9648V62.9895H67.6078V43.304Z" fill="#FF0000"/>
<path d="M67.6019 0.358221L67.3027 16.8282L62.2176 11.743C60.4228 13.5916 58.5632 15.3605 56.6388 17.0495C54.3276 19.0437 51.9276 20.9242 49.4388 22.6911C44.4816 26.1928 39.1866 29.19 33.6329 31.638C30.863 32.8345 28.0512 33.9203 25.1975 34.8536C22.3489 35.7839 19.4534 36.5637 16.5228 37.1898C13.6033 37.818 10.6679 38.3046 7.71652 38.6496C5.14801 38.9347 2.57551 39.1072 -0.000976562 39.167V37.2736C2.41897 36.8309 4.81797 36.3253 7.17809 35.6942C9.95997 34.9763 12.695 34.1347 15.3832 33.1695C20.7239 31.2611 25.8793 28.8691 30.7852 26.0234C33.2261 24.6145 35.5713 23.074 37.8656 21.4557C38.4339 21.0429 39.0083 20.648 39.5646 20.2233L41.2338 18.955L42.867 17.6478C43.4084 17.2081 43.9379 16.7504 44.4733 16.3077C46.5911 14.485 48.6172 12.5756 50.5516 10.5794C52.2985 8.81456 53.9377 6.95099 55.5291 5.05752L50.4708 -0.000732422L67.6019 0.358221Z" fill="black"/>
</svg>
