<svg width="89" height="86" viewBox="0 0 89 86" fill="none" xmlns="http://www.w3.org/2000/svg">
<path d="M42.4431 43.7437H33.3223V50.4358H42.4431V43.7437Z" fill="#FF0000"/>
<path d="M42.4431 37.0479H33.3223V43.74H42.4431V37.0479Z" fill="#FC5166"/>
<path d="M58.2712 40.5378H49.1504V50.4359H58.2712V40.5378Z" fill="#FF0000"/>
<path d="M58.2712 30.6431H49.1504V40.5411H58.2712V30.6431Z" fill="#FC5166"/>
<path d="M74.2517 36.9094H65.1309V50.4356H74.2517V36.9094Z" fill="#FF0000"/>
<path d="M74.2517 23.3831H65.1309V36.9093H74.2517V23.3831Z" fill="#FC5166"/>
<path d="M13.3016 21.5261H26.1254V17.9353H13.3016V21.5261ZM13.3016 30.6432H26.1254V27.0449H13.3016V30.6432ZM85.8088 64.313V7.72339H2.48438V64.313H42.8388V72.836C41.2622 73.16 39.862 74.0575 38.9093 75.3548C37.9566 76.6521 37.5193 78.2569 37.6821 79.8581C37.8449 81.4594 38.5962 82.9433 39.7905 84.0223C40.9848 85.1013 42.5371 85.6987 44.1466 85.6987C45.7561 85.6987 47.3084 85.1013 48.5027 84.0223C49.697 82.9433 50.4483 81.4594 50.6111 79.8581C50.7739 78.2569 50.3366 76.6521 49.3839 75.3548C48.4312 74.0575 47.031 73.16 45.4544 72.836V64.313H85.8088ZM48.0288 79.2143C48.0288 79.9821 47.8012 80.7327 47.3746 81.3711C46.948 82.0096 46.3417 82.5072 45.6323 82.801C44.9229 83.0948 44.1423 83.1717 43.3892 83.0219C42.6361 82.8721 41.9444 82.5024 41.4014 81.9594C40.8585 81.4165 40.4888 80.7247 40.339 79.9717C40.1892 79.2186 40.266 78.438 40.5599 77.7286C40.8537 77.0192 41.3513 76.4129 41.9897 75.9863C42.6282 75.5597 43.3788 75.332 44.1466 75.332C45.1756 75.334 46.1619 75.7437 46.8896 76.4713C47.6172 77.1989 48.0269 78.1852 48.0288 79.2143ZM5.09994 61.6975V10.339H83.1933V61.6975H5.09994Z" fill="black"/>
<path d="M88.294 5.17114H0V10.3425H88.294V5.17114Z" fill="#FC5166"/>
<path d="M88.294 0H0V5.17135H88.294V0Z" fill="#FF0000"/>
</svg>
