<svg width="80" height="82" viewBox="0 0 80 82" fill="none" xmlns="http://www.w3.org/2000/svg">
<path d="M40.1499 11.7804C34.4025 11.7804 28.7841 13.505 24.0056 16.7359C19.2272 19.9668 15.5032 24.559 13.305 29.9314C11.1067 35.3039 10.5328 41.2152 11.6559 46.9177C12.7791 52.6202 15.5488 57.8575 19.6146 61.9672C23.6805 66.0769 28.8598 68.8743 34.4975 70.0056C40.1351 71.1368 45.9777 70.551 51.2863 68.3223C56.5948 66.0936 61.1306 62.3221 64.32 57.485C67.5095 52.6479 69.2092 46.9624 69.2041 41.1479C69.1905 33.3589 66.1243 25.8932 60.6778 20.388C55.2313 14.8827 47.849 11.7873 40.1499 11.7804V11.7804ZM40.1499 61.3055C36.2091 61.3055 32.3568 60.1233 29.0802 57.9084C25.8035 55.6934 23.2497 52.5452 21.7416 48.8619C20.2335 45.1785 19.8389 41.1255 20.6077 37.2153C21.3765 33.3051 23.2742 29.7133 26.0608 26.8942C28.8474 24.0751 32.3977 22.1553 36.2627 21.3775C40.1278 20.5997 44.1341 20.9989 47.7749 22.5246C51.4157 24.0503 54.5276 26.6339 56.717 29.9488C58.9064 33.2638 60.075 37.161 60.075 41.1479C60.075 43.795 59.5596 46.4162 58.5583 48.8619C57.5569 51.3075 56.0893 53.5297 54.2391 55.4015C52.3888 57.2733 50.1923 58.7581 47.7749 59.7711C45.3575 60.7841 42.7665 61.3055 40.1499 61.3055ZM40.1499 11.7804C34.4025 11.7804 28.7841 13.505 24.0056 16.7359C19.2272 19.9668 15.5032 24.559 13.305 29.9314C11.1067 35.3039 10.5328 41.2152 11.6559 46.9177C12.7791 52.6202 15.5488 57.8575 19.6146 61.9672C23.6805 66.0769 28.8598 68.8743 34.4975 70.0056C40.1351 71.1368 45.9777 70.551 51.2863 68.3223C56.5948 66.0936 61.1306 62.3221 64.32 57.485C67.5095 52.6479 69.2092 46.9624 69.2041 41.1479C69.1905 33.3589 66.1243 25.8932 60.6778 20.388C55.2313 14.8827 47.849 11.7873 40.1499 11.7804V11.7804ZM40.1499 61.3055C36.2091 61.3055 32.3568 60.1233 29.0802 57.9084C25.8035 55.6934 23.2497 52.5452 21.7416 48.8619C20.2335 45.1785 19.8389 41.1255 20.6077 37.2153C21.3765 33.3051 23.2742 29.7133 26.0608 26.8942C28.8474 24.0751 32.3977 22.1553 36.2627 21.3775C40.1278 20.5997 44.1341 20.9989 47.7749 22.5246C51.4157 24.0503 54.5276 26.6339 56.717 29.9488C58.9064 33.2638 60.075 37.161 60.075 41.1479C60.075 43.795 59.5596 46.4162 58.5583 48.8619C57.5569 51.3075 56.0893 53.5297 54.2391 55.4015C52.3888 57.2733 50.1923 58.7581 47.7749 59.7711C45.3575 60.7841 42.7665 61.3055 40.1499 61.3055ZM40.1499 11.7804C34.4025 11.7804 28.7841 13.505 24.0056 16.7359C19.2272 19.9668 15.5032 24.559 13.305 29.9314C11.1067 35.3039 10.5328 41.2152 11.6559 46.9177C12.7791 52.6202 15.5488 57.8575 19.6146 61.9672C23.6805 66.0769 28.8598 68.8743 34.4975 70.0056C40.1351 71.1368 45.9777 70.551 51.2863 68.3223C56.5948 66.0936 61.1306 62.3221 64.32 57.485C67.5095 52.6479 69.2092 46.9624 69.2041 41.1479C69.1905 33.3589 66.1243 25.8932 60.6778 20.388C55.2313 14.8827 47.849 11.7873 40.1499 11.7804V11.7804ZM40.1499 61.3055C36.2091 61.3055 32.3568 60.1233 29.0802 57.9084C25.8035 55.6934 23.2497 52.5452 21.7416 48.8619C20.2335 45.1785 19.8389 41.1255 20.6077 37.2153C21.3765 33.3051 23.2742 29.7133 26.0608 26.8942C28.8474 24.0751 32.3977 22.1553 36.2627 21.3775C40.1278 20.5997 44.1341 20.9989 47.7749 22.5246C51.4157 24.0503 54.5276 26.6339 56.717 29.9488C58.9064 33.2638 60.075 37.161 60.075 41.1479C60.075 43.795 59.5596 46.4162 58.5583 48.8619C57.5569 51.3075 56.0893 53.5297 54.2391 55.4015C52.3888 57.2733 50.1923 58.7581 47.7749 59.7711C45.3575 60.7841 42.7665 61.3055 40.1499 61.3055ZM40.1499 11.7804C34.4025 11.7804 28.7841 13.505 24.0056 16.7359C19.2272 19.9668 15.5032 24.559 13.305 29.9314C11.1067 35.3039 10.5328 41.2152 11.6559 46.9177C12.7791 52.6202 15.5488 57.8575 19.6146 61.9672C23.6805 66.0769 28.8598 68.8743 34.4975 70.0056C40.1351 71.1368 45.9777 70.551 51.2863 68.3223C56.5948 66.0936 61.1306 62.3221 64.32 57.485C67.5095 52.6479 69.2092 46.9624 69.2041 41.1479C69.1905 33.3589 66.1243 25.8932 60.6778 20.388C55.2313 14.8827 47.849 11.7873 40.1499 11.7804V11.7804ZM40.1499 61.3055C36.2091 61.3055 32.3568 60.1233 29.0802 57.9084C25.8035 55.6934 23.2497 52.5452 21.7416 48.8619C20.2335 45.1785 19.8389 41.1255 20.6077 37.2153C21.3765 33.3051 23.2742 29.7133 26.0608 26.8942C28.8474 24.0751 32.3977 22.1553 36.2627 21.3775C40.1278 20.5997 44.1341 20.9989 47.7749 22.5246C51.4157 24.0503 54.5276 26.6339 56.717 29.9488C58.9064 33.2638 60.075 37.161 60.075 41.1479C60.075 43.795 59.5596 46.4162 58.5583 48.8619C57.5569 51.3075 56.0893 53.5297 54.2391 55.4015C52.3888 57.2733 50.1923 58.7581 47.7749 59.7711C45.3575 60.7841 42.7665 61.3055 40.1499 61.3055ZM40.1499 11.7804C34.4025 11.7804 28.7841 13.505 24.0056 16.7359C19.2272 19.9668 15.5032 24.559 13.305 29.9314C11.1067 35.3039 10.5328 41.2152 11.6559 46.9177C12.7791 52.6202 15.5488 57.8575 19.6146 61.9672C23.6805 66.0769 28.8598 68.8743 34.4975 70.0056C40.1351 71.1368 45.9777 70.551 51.2863 68.3223C56.5948 66.0936 61.1306 62.3221 64.32 57.485C67.5095 52.6479 69.2092 46.9624 69.2041 41.1479C69.1905 33.3589 66.1243 25.8932 60.6778 20.388C55.2313 14.8827 47.849 11.7873 40.1499 11.7804V11.7804ZM40.1499 61.3055C36.2091 61.3055 32.3568 60.1233 29.0802 57.9084C25.8035 55.6934 23.2497 52.5452 21.7416 48.8619C20.2335 45.1785 19.8389 41.1255 20.6077 37.2153C21.3765 33.3051 23.2742 29.7133 26.0608 26.8942C28.8474 24.0751 32.3977 22.1553 36.2627 21.3775C40.1278 20.5997 44.1341 20.9989 47.7749 22.5246C51.4157 24.0503 54.5276 26.6339 56.717 29.9488C58.9064 33.2638 60.075 37.161 60.075 41.1479C60.075 43.795 59.5596 46.4162 58.5583 48.8619C57.5569 51.3075 56.0893 53.5297 54.2391 55.4015C52.3888 57.2733 50.1923 58.7581 47.7749 59.7711C45.3575 60.7841 42.7665 61.3055 40.1499 61.3055ZM40.1499 11.7804C34.4025 11.7804 28.7841 13.505 24.0056 16.7359C19.2272 19.9668 15.5032 24.559 13.305 29.9314C11.1067 35.3039 10.5328 41.2152 11.6559 46.9177C12.7791 52.6202 15.5488 57.8575 19.6146 61.9672C23.6805 66.0769 28.8598 68.8743 34.4975 70.0056C40.1351 71.1368 45.9777 70.551 51.2863 68.3223C56.5948 66.0936 61.1306 62.3221 64.32 57.485C67.5095 52.6479 69.2092 46.9624 69.2041 41.1479C69.1905 33.3589 66.1243 25.8932 60.6778 20.388C55.2313 14.8827 47.849 11.7873 40.1499 11.7804V11.7804ZM40.1499 61.3055C36.2091 61.3055 32.3568 60.1233 29.0802 57.9084C25.8035 55.6934 23.2497 52.5452 21.7416 48.8619C20.2335 45.1785 19.8389 41.1255 20.6077 37.2153C21.3765 33.3051 23.2742 29.7133 26.0608 26.8942C28.8474 24.0751 32.3977 22.1553 36.2627 21.3775C40.1278 20.5997 44.1341 20.9989 47.7749 22.5246C51.4157 24.0503 54.5276 26.6339 56.717 29.9488C58.9064 33.2638 60.075 37.161 60.075 41.1479C60.075 43.795 59.5596 46.4162 58.5583 48.8619C57.5569 51.3075 56.0893 53.5297 54.2391 55.4015C52.3888 57.2733 50.1923 58.7581 47.7749 59.7711C45.3575 60.7841 42.7665 61.3055 40.1499 61.3055ZM40.1499 11.7804C34.4025 11.7804 28.7841 13.505 24.0056 16.7359C19.2272 19.9668 15.5032 24.559 13.305 29.9314C11.1067 35.3039 10.5328 41.2152 11.6559 46.9177C12.7791 52.6202 15.5488 57.8575 19.6146 61.9672C23.6805 66.0769 28.8598 68.8743 34.4975 70.0056C40.1351 71.1368 45.9777 70.551 51.2863 68.3223C56.5948 66.0936 61.1306 62.3221 64.32 57.485C67.5095 52.6479 69.2092 46.9624 69.2041 41.1479C69.1905 33.3589 66.1243 25.8932 60.6778 20.388C55.2313 14.8827 47.849 11.7873 40.1499 11.7804V11.7804ZM40.1499 61.3055C36.2091 61.3055 32.3568 60.1233 29.0802 57.9084C25.8035 55.6934 23.2497 52.5452 21.7416 48.8619C20.2335 45.1785 19.8389 41.1255 20.6077 37.2153C21.3765 33.3051 23.2742 29.7133 26.0608 26.8942C28.8474 24.0751 32.3977 22.1553 36.2627 21.3775C40.1278 20.5997 44.1341 20.9989 47.7749 22.5246C51.4157 24.0503 54.5276 26.6339 56.717 29.9488C58.9064 33.2638 60.075 37.161 60.075 41.1479C60.075 43.795 59.5596 46.4162 58.5583 48.8619C57.5569 51.3075 56.0893 53.5297 54.2391 55.4015C52.3888 57.2733 50.1923 58.7581 47.7749 59.7711C45.3575 60.7841 42.7665 61.3055 40.1499 61.3055ZM40.1499 11.7804C34.4025 11.7804 28.7841 13.505 24.0056 16.7359C19.2272 19.9668 15.5032 24.559 13.305 29.9314C11.1067 35.3039 10.5328 41.2152 11.6559 46.9177C12.7791 52.6202 15.5488 57.8575 19.6146 61.9672C23.6805 66.0769 28.8598 68.8743 34.4975 70.0056C40.1351 71.1368 45.9777 70.551 51.2863 68.3223C56.5948 66.0936 61.1306 62.3221 64.32 57.485C67.5095 52.6479 69.2092 46.9624 69.2041 41.1479C69.1905 33.3589 66.1243 25.8932 60.6778 20.388C55.2313 14.8827 47.849 11.7873 40.1499 11.7804V11.7804ZM40.1499 61.3055C36.2091 61.3055 32.3568 60.1233 29.0802 57.9084C25.8035 55.6934 23.2497 52.5452 21.7416 48.8619C20.2335 45.1785 19.8389 41.1255 20.6077 37.2153C21.3765 33.3051 23.2742 29.7133 26.0608 26.8942C28.8474 24.0751 32.3977 22.1553 36.2627 21.3775C40.1278 20.5997 44.1341 20.9989 47.7749 22.5246C51.4157 24.0503 54.5276 26.6339 56.717 29.9488C58.9064 33.2638 60.075 37.161 60.075 41.1479C60.075 43.795 59.5596 46.4162 58.5583 48.8619C57.5569 51.3075 56.0893 53.5297 54.2391 55.4015C52.3888 57.2733 50.1923 58.7581 47.7749 59.7711C45.3575 60.7841 42.7665 61.3055 40.1499 61.3055ZM40.1499 11.7804C34.4025 11.7804 28.7841 13.505 24.0056 16.7359C19.2272 19.9668 15.5032 24.559 13.305 29.9314C11.1067 35.3039 10.5328 41.2152 11.6559 46.9177C12.7791 52.6202 15.5488 57.8575 19.6146 61.9672C23.6805 66.0769 28.8598 68.8743 34.4975 70.0056C40.1351 71.1368 45.9777 70.551 51.2863 68.3223C56.5948 66.0936 61.1306 62.3221 64.32 57.485C67.5095 52.6479 69.2092 46.9624 69.2041 41.1479C69.1905 33.3589 66.1243 25.8932 60.6778 20.388C55.2313 14.8827 47.849 11.7873 40.1499 11.7804V11.7804ZM40.1499 61.3055C36.2091 61.3055 32.3568 60.1233 29.0802 57.9084C25.8035 55.6934 23.2497 52.5452 21.7416 48.8619C20.2335 45.1785 19.8389 41.1255 20.6077 37.2153C21.3765 33.3051 23.2742 29.7133 26.0608 26.8942C28.8474 24.0751 32.3977 22.1553 36.2627 21.3775C40.1278 20.5997 44.1341 20.9989 47.7749 22.5246C51.4157 24.0503 54.5276 26.6339 56.717 29.9488C58.9064 33.2638 60.075 37.161 60.075 41.1479C60.075 43.795 59.5596 46.4162 58.5583 48.8619C57.5569 51.3075 56.0893 53.5297 54.2391 55.4015C52.3888 57.2733 50.1923 58.7581 47.7749 59.7711C45.3575 60.7841 42.7665 61.3055 40.1499 61.3055ZM40.1499 11.7804C34.4025 11.7804 28.7841 13.505 24.0056 16.7359C19.2272 19.9668 15.5032 24.559 13.305 29.9314C11.1067 35.3039 10.5328 41.2152 11.6559 46.9177C12.7791 52.6202 15.5488 57.8575 19.6146 61.9672C23.6805 66.0769 28.8598 68.8743 34.4975 70.0056C40.1351 71.1368 45.9777 70.551 51.2863 68.3223C56.5948 66.0936 61.1306 62.3221 64.32 57.485C67.5095 52.6479 69.2092 46.9624 69.2041 41.1479C69.1905 33.3589 66.1243 25.8932 60.6778 20.388C55.2313 14.8827 47.849 11.7873 40.1499 11.7804V11.7804ZM40.1499 61.3055C36.2091 61.3055 32.3568 60.1233 29.0802 57.9084C25.8035 55.6934 23.2497 52.5452 21.7416 48.8619C20.2335 45.1785 19.8389 41.1255 20.6077 37.2153C21.3765 33.3051 23.2742 29.7133 26.0608 26.8942C28.8474 24.0751 32.3977 22.1553 36.2627 21.3775C40.1278 20.5997 44.1341 20.9989 47.7749 22.5246C51.4157 24.0503 54.5276 26.6339 56.717 29.9488C58.9064 33.2638 60.075 37.161 60.075 41.1479C60.075 43.795 59.5596 46.4162 58.5583 48.8619C57.5569 51.3075 56.0893 53.5297 54.2391 55.4015C52.3888 57.2733 50.1923 58.7581 47.7749 59.7711C45.3575 60.7841 42.7665 61.3055 40.1499 61.3055ZM40.1499 11.7804C34.4025 11.7804 28.7841 13.505 24.0056 16.7359C19.2272 19.9668 15.5032 24.559 13.305 29.9314C11.1067 35.3039 10.5328 41.2152 11.6559 46.9177C12.7791 52.6202 15.5488 57.8575 19.6146 61.9672C23.6805 66.0769 28.8598 68.8743 34.4975 70.0056C40.1351 71.1368 45.9777 70.551 51.2863 68.3223C56.5948 66.0936 61.1306 62.3221 64.32 57.485C67.5095 52.6479 69.2092 46.9624 69.2041 41.1479C69.1905 33.3589 66.1243 25.8932 60.6778 20.388C55.2313 14.8827 47.849 11.7873 40.1499 11.7804V11.7804ZM40.1499 61.3055C36.2091 61.3055 32.3568 60.1233 29.0802 57.9084C25.8035 55.6934 23.2497 52.5452 21.7416 48.8619C20.2335 45.1785 19.8389 41.1255 20.6077 37.2153C21.3765 33.3051 23.2742 29.7133 26.0608 26.8942C28.8474 24.0751 32.3977 22.1553 36.2627 21.3775C40.1278 20.5997 44.1341 20.9989 47.7749 22.5246C51.4157 24.0503 54.5276 26.6339 56.717 29.9488C58.9064 33.2638 60.075 37.161 60.075 41.1479C60.075 43.795 59.5596 46.4162 58.5583 48.8619C57.5569 51.3075 56.0893 53.5297 54.2391 55.4015C52.3888 57.2733 50.1923 58.7581 47.7749 59.7711C45.3575 60.7841 42.7665 61.3055 40.1499 61.3055ZM40.1499 11.7804C34.4025 11.7804 28.7841 13.505 24.0056 16.7359C19.2272 19.9668 15.5032 24.559 13.305 29.9314C11.1067 35.3039 10.5328 41.2152 11.6559 46.9177C12.7791 52.6202 15.5488 57.8575 19.6146 61.9672C23.6805 66.0769 28.8598 68.8743 34.4975 70.0056C40.1351 71.1368 45.9777 70.551 51.2863 68.3223C56.5948 66.0936 61.1306 62.3221 64.32 57.485C67.5095 52.6479 69.2092 46.9624 69.2041 41.1479C69.1905 33.3589 66.1243 25.8932 60.6778 20.388C55.2313 14.8827 47.849 11.7873 40.1499 11.7804V11.7804ZM40.1499 61.3055C36.2091 61.3055 32.3568 60.1233 29.0802 57.9084C25.8035 55.6934 23.2497 52.5452 21.7416 48.8619C20.2335 45.1785 19.8389 41.1255 20.6077 37.2153C21.3765 33.3051 23.2742 29.7133 26.0608 26.8942C28.8474 24.0751 32.3977 22.1553 36.2627 21.3775C40.1278 20.5997 44.1341 20.9989 47.7749 22.5246C51.4157 24.0503 54.5276 26.6339 56.717 29.9488C58.9064 33.2638 60.075 37.161 60.075 41.1479C60.075 43.795 59.5596 46.4162 58.5583 48.8619C57.5569 51.3075 56.0893 53.5297 54.2391 55.4015C52.3888 57.2733 50.1923 58.7581 47.7749 59.7711C45.3575 60.7841 42.7665 61.3055 40.1499 61.3055ZM40.1499 0.858437C32.2745 0.863568 24.5774 3.23086 18.0316 7.66104C11.4859 12.0912 6.38551 18.3853 3.37522 25.7477C0.364937 33.1101 -0.420062 41.2102 1.11947 49.0238C2.659 56.8375 6.45394 64.014 12.0245 69.6459C17.5951 75.2779 24.6912 79.1125 32.4156 80.665C40.1401 82.2175 48.1462 81.4181 55.4216 78.3679C62.6971 75.3178 68.9153 70.1538 73.2902 63.5288C77.665 56.9038 80 49.1152 80 41.1479C80 35.8548 78.9691 30.6136 76.9661 25.7238C74.9631 20.8339 72.0274 16.3913 68.3266 12.6498C64.6259 8.9082 60.2326 5.94104 55.398 3.91784C50.5633 1.89463 45.3819 0.855029 40.1499 0.858437ZM40.1499 72.2016C34.0637 72.2016 28.1142 70.3757 23.0538 66.955C17.9933 63.5342 14.0491 58.6721 11.7201 52.9836C9.39098 47.295 8.78159 41.0355 9.96894 34.9966C11.1563 28.9576 14.0871 23.4105 18.3907 19.0567C22.6942 14.7029 28.1773 11.7379 34.1466 10.5367C40.1158 9.33544 46.3031 9.95195 51.926 12.3082C57.5489 14.6645 62.3548 18.6547 65.7361 23.7743C69.1174 28.8938 70.9222 34.9128 70.9222 41.07C70.9222 49.3266 67.6801 57.2451 61.9092 63.0834C56.1383 68.9217 48.3112 72.2016 40.1499 72.2016ZM40.1499 11.7804C34.4025 11.7804 28.7841 13.505 24.0056 16.7359C19.2272 19.9668 15.5032 24.559 13.305 29.9314C11.1067 35.3039 10.5328 41.2152 11.6559 46.9177C12.7791 52.6202 15.5488 57.8575 19.6146 61.9672C23.6805 66.0769 28.8598 68.8743 34.4975 70.0056C40.1351 71.1368 45.9777 70.551 51.2863 68.3223C56.5948 66.0936 61.1306 62.3221 64.32 57.485C67.5095 52.6479 69.2092 46.9624 69.2041 41.1479C69.1905 33.3589 66.1243 25.8932 60.6778 20.388C55.2313 14.8827 47.849 11.7873 40.1499 11.7804V11.7804ZM40.1499 61.3055C36.2091 61.3055 32.3568 60.1233 29.0802 57.9084C25.8035 55.6934 23.2497 52.5452 21.7416 48.8619C20.2335 45.1785 19.8389 41.1255 20.6077 37.2153C21.3765 33.3051 23.2742 29.7133 26.0608 26.8942C28.8474 24.0751 32.3977 22.1553 36.2627 21.3775C40.1278 20.5997 44.1341 20.9989 47.7749 22.5246C51.4157 24.0503 54.5276 26.6339 56.717 29.9488C58.9064 33.2638 60.075 37.161 60.075 41.1479C60.075 43.795 59.5596 46.4162 58.5583 48.8619C57.5569 51.3075 56.0893 53.5297 54.2391 55.4015C52.3888 57.2733 50.1923 58.7581 47.7749 59.7711C45.3575 60.7841 42.7665 61.3055 40.1499 61.3055V61.3055ZM40.1499 11.7804C34.4025 11.7804 28.7841 13.505 24.0056 16.7359C19.2272 19.9668 15.5032 24.559 13.305 29.9314C11.1067 35.3039 10.5328 41.2152 11.6559 46.9177C12.7791 52.6202 15.5488 57.8575 19.6146 61.9672C23.6805 66.0769 28.8598 68.8743 34.4975 70.0056C40.1351 71.1368 45.9777 70.551 51.2863 68.3223C56.5948 66.0936 61.1306 62.3221 64.32 57.485C67.5095 52.6479 69.2092 46.9624 69.2041 41.1479C69.1905 33.3589 66.1243 25.8932 60.6778 20.388C55.2313 14.8827 47.849 11.7873 40.1499 11.7804V11.7804ZM40.1499 61.3055C36.2091 61.3055 32.3568 60.1233 29.0802 57.9084C25.8035 55.6934 23.2497 52.5452 21.7416 48.8619C20.2335 45.1785 19.8389 41.1255 20.6077 37.2153C21.3765 33.3051 23.2742 29.7133 26.0608 26.8942C28.8474 24.0751 32.3977 22.1553 36.2627 21.3775C40.1278 20.5997 44.1341 20.9989 47.7749 22.5246C51.4157 24.0503 54.5276 26.6339 56.717 29.9488C58.9064 33.2638 60.075 37.161 60.075 41.1479C60.075 43.795 59.5596 46.4162 58.5583 48.8619C57.5569 51.3075 56.0893 53.5297 54.2391 55.4015C52.3888 57.2733 50.1923 58.7581 47.7749 59.7711C45.3575 60.7841 42.7665 61.3055 40.1499 61.3055V61.3055ZM40.1499 11.7804C34.4025 11.7804 28.7841 13.505 24.0056 16.7359C19.2272 19.9668 15.5032 24.559 13.305 29.9314C11.1067 35.3039 10.5328 41.2152 11.6559 46.9177C12.7791 52.6202 15.5488 57.8575 19.6146 61.9672C23.6805 66.0769 28.8598 68.8743 34.4975 70.0056C40.1351 71.1368 45.9777 70.551 51.2863 68.3223C56.5948 66.0936 61.1306 62.3221 64.32 57.485C67.5095 52.6479 69.2092 46.9624 69.2041 41.1479C69.1905 33.3589 66.1243 25.8932 60.6778 20.388C55.2313 14.8827 47.849 11.7873 40.1499 11.7804V11.7804ZM40.1499 61.3055C36.2091 61.3055 32.3568 60.1233 29.0802 57.9084C25.8035 55.6934 23.2497 52.5452 21.7416 48.8619C20.2335 45.1785 19.8389 41.1255 20.6077 37.2153C21.3765 33.3051 23.2742 29.7133 26.0608 26.8942C28.8474 24.0751 32.3977 22.1553 36.2627 21.3775C40.1278 20.5997 44.1341 20.9989 47.7749 22.5246C51.4157 24.0503 54.5276 26.6339 56.717 29.9488C58.9064 33.2638 60.075 37.161 60.075 41.1479C60.075 43.795 59.5596 46.4162 58.5583 48.8619C57.5569 51.3075 56.0893 53.5297 54.2391 55.4015C52.3888 57.2733 50.1923 58.7581 47.7749 59.7711C45.3575 60.7841 42.7665 61.3055 40.1499 61.3055V61.3055ZM40.1499 11.7804C34.4025 11.7804 28.7841 13.505 24.0056 16.7359C19.2272 19.9668 15.5032 24.559 13.305 29.9314C11.1067 35.3039 10.5328 41.2152 11.6559 46.9177C12.7791 52.6202 15.5488 57.8575 19.6146 61.9672C23.6805 66.0769 28.8598 68.8743 34.4975 70.0056C40.1351 71.1368 45.9777 70.551 51.2863 68.3223C56.5948 66.0936 61.1306 62.3221 64.32 57.485C67.5095 52.6479 69.2092 46.9624 69.2041 41.1479C69.1905 33.3589 66.1243 25.8932 60.6778 20.388C55.2313 14.8827 47.849 11.7873 40.1499 11.7804V11.7804ZM40.1499 61.3055C36.2091 61.3055 32.3568 60.1233 29.0802 57.9084C25.8035 55.6934 23.2497 52.5452 21.7416 48.8619C20.2335 45.1785 19.8389 41.1255 20.6077 37.2153C21.3765 33.3051 23.2742 29.7133 26.0608 26.8942C28.8474 24.0751 32.3977 22.1553 36.2627 21.3775C40.1278 20.5997 44.1341 20.9989 47.7749 22.5246C51.4157 24.0503 54.5276 26.6339 56.717 29.9488C58.9064 33.2638 60.075 37.161 60.075 41.1479C60.075 43.795 59.5596 46.4162 58.5583 48.8619C57.5569 51.3075 56.0893 53.5297 54.2391 55.4015C52.3888 57.2733 50.1923 58.7581 47.7749 59.7711C45.3575 60.7841 42.7665 61.3055 40.1499 61.3055V61.3055ZM40.1499 11.7804C34.4025 11.7804 28.7841 13.505 24.0056 16.7359C19.2272 19.9668 15.5032 24.559 13.305 29.9314C11.1067 35.3039 10.5328 41.2152 11.6559 46.9177C12.7791 52.6202 15.5488 57.8575 19.6146 61.9672C23.6805 66.0769 28.8598 68.8743 34.4975 70.0056C40.1351 71.1368 45.9777 70.551 51.2863 68.3223C56.5948 66.0936 61.1306 62.3221 64.32 57.485C67.5095 52.6479 69.2092 46.9624 69.2041 41.1479C69.1905 33.3589 66.1243 25.8932 60.6778 20.388C55.2313 14.8827 47.849 11.7873 40.1499 11.7804V11.7804ZM40.1499 61.3055C36.2091 61.3055 32.3568 60.1233 29.0802 57.9084C25.8035 55.6934 23.2497 52.5452 21.7416 48.8619C20.2335 45.1785 19.8389 41.1255 20.6077 37.2153C21.3765 33.3051 23.2742 29.7133 26.0608 26.8942C28.8474 24.0751 32.3977 22.1553 36.2627 21.3775C40.1278 20.5997 44.1341 20.9989 47.7749 22.5246C51.4157 24.0503 54.5276 26.6339 56.717 29.9488C58.9064 33.2638 60.075 37.161 60.075 41.1479C60.075 43.795 59.5596 46.4162 58.5583 48.8619C57.5569 51.3075 56.0893 53.5297 54.2391 55.4015C52.3888 57.2733 50.1923 58.7581 47.7749 59.7711C45.3575 60.7841 42.7665 61.3055 40.1499 61.3055V61.3055ZM40.1499 11.7804C34.4025 11.7804 28.7841 13.505 24.0056 16.7359C19.2272 19.9668 15.5032 24.559 13.305 29.9314C11.1067 35.3039 10.5328 41.2152 11.6559 46.9177C12.7791 52.6202 15.5488 57.8575 19.6146 61.9672C23.6805 66.0769 28.8598 68.8743 34.4975 70.0056C40.1351 71.1368 45.9777 70.551 51.2863 68.3223C56.5948 66.0936 61.1306 62.3221 64.32 57.485C67.5095 52.6479 69.2092 46.9624 69.2041 41.1479C69.1905 33.3589 66.1243 25.8932 60.6778 20.388C55.2313 14.8827 47.849 11.7873 40.1499 11.7804V11.7804ZM40.1499 61.3055C36.2091 61.3055 32.3568 60.1233 29.0802 57.9084C25.8035 55.6934 23.2497 52.5452 21.7416 48.8619C20.2335 45.1785 19.8389 41.1255 20.6077 37.2153C21.3765 33.3051 23.2742 29.7133 26.0608 26.8942C28.8474 24.0751 32.3977 22.1553 36.2627 21.3775C40.1278 20.5997 44.1341 20.9989 47.7749 22.5246C51.4157 24.0503 54.5276 26.6339 56.717 29.9488C58.9064 33.2638 60.075 37.161 60.075 41.1479C60.075 43.795 59.5596 46.4162 58.5583 48.8619C57.5569 51.3075 56.0893 53.5297 54.2391 55.4015C52.3888 57.2733 50.1923 58.7581 47.7749 59.7711C45.3575 60.7841 42.7665 61.3055 40.1499 61.3055V61.3055ZM40.1499 11.7804C34.4025 11.7804 28.7841 13.505 24.0056 16.7359C19.2272 19.9668 15.5032 24.559 13.305 29.9314C11.1067 35.3039 10.5328 41.2152 11.6559 46.9177C12.7791 52.6202 15.5488 57.8575 19.6146 61.9672C23.6805 66.0769 28.8598 68.8743 34.4975 70.0056C40.1351 71.1368 45.9777 70.551 51.2863 68.3223C56.5948 66.0936 61.1306 62.3221 64.32 57.485C67.5095 52.6479 69.2092 46.9624 69.2041 41.1479C69.1905 33.3589 66.1243 25.8932 60.6778 20.388C55.2313 14.8827 47.849 11.7873 40.1499 11.7804V11.7804ZM40.1499 61.3055C36.2091 61.3055 32.3568 60.1233 29.0802 57.9084C25.8035 55.6934 23.2497 52.5452 21.7416 48.8619C20.2335 45.1785 19.8389 41.1255 20.6077 37.2153C21.3765 33.3051 23.2742 29.7133 26.0608 26.8942C28.8474 24.0751 32.3977 22.1553 36.2627 21.3775C40.1278 20.5997 44.1341 20.9989 47.7749 22.5246C51.4157 24.0503 54.5276 26.6339 56.717 29.9488C58.9064 33.2638 60.075 37.161 60.075 41.1479C60.075 43.795 59.5596 46.4162 58.5583 48.8619C57.5569 51.3075 56.0893 53.5297 54.2391 55.4015C52.3888 57.2733 50.1923 58.7581 47.7749 59.7711C45.3575 60.7841 42.7665 61.3055 40.1499 61.3055V61.3055ZM40.1499 11.7804C34.4025 11.7804 28.7841 13.505 24.0056 16.7359C19.2272 19.9668 15.5032 24.559 13.305 29.9314C11.1067 35.3039 10.5328 41.2152 11.6559 46.9177C12.7791 52.6202 15.5488 57.8575 19.6146 61.9672C23.6805 66.0769 28.8598 68.8743 34.4975 70.0056C40.1351 71.1368 45.9777 70.551 51.2863 68.3223C56.5948 66.0936 61.1306 62.3221 64.32 57.485C67.5095 52.6479 69.2092 46.9624 69.2041 41.1479C69.1905 33.3589 66.1243 25.8932 60.6778 20.388C55.2313 14.8827 47.849 11.7873 40.1499 11.7804V11.7804ZM40.1499 61.3055C36.2091 61.3055 32.3568 60.1233 29.0802 57.9084C25.8035 55.6934 23.2497 52.5452 21.7416 48.8619C20.2335 45.1785 19.8389 41.1255 20.6077 37.2153C21.3765 33.3051 23.2742 29.7133 26.0608 26.8942C28.8474 24.0751 32.3977 22.1553 36.2627 21.3775C40.1278 20.5997 44.1341 20.9989 47.7749 22.5246C51.4157 24.0503 54.5276 26.6339 56.717 29.9488C58.9064 33.2638 60.075 37.161 60.075 41.1479C60.075 43.795 59.5596 46.4162 58.5583 48.8619C57.5569 51.3075 56.0893 53.5297 54.2391 55.4015C52.3888 57.2733 50.1923 58.7581 47.7749 59.7711C45.3575 60.7841 42.7665 61.3055 40.1499 61.3055V61.3055ZM40.1499 11.7804C34.4025 11.7804 28.7841 13.505 24.0056 16.7359C19.2272 19.9668 15.5032 24.559 13.305 29.9314C11.1067 35.3039 10.5328 41.2152 11.6559 46.9177C12.7791 52.6202 15.5488 57.8575 19.6146 61.9672C23.6805 66.0769 28.8598 68.8743 34.4975 70.0056C40.1351 71.1368 45.9777 70.551 51.2863 68.3223C56.5948 66.0936 61.1306 62.3221 64.32 57.485C67.5095 52.6479 69.2092 46.9624 69.2041 41.1479C69.1905 33.3589 66.1243 25.8932 60.6778 20.388C55.2313 14.8827 47.849 11.7873 40.1499 11.7804V11.7804ZM40.1499 61.3055C36.2091 61.3055 32.3568 60.1233 29.0802 57.9084C25.8035 55.6934 23.2497 52.5452 21.7416 48.8619C20.2335 45.1785 19.8389 41.1255 20.6077 37.2153C21.3765 33.3051 23.2742 29.7133 26.0608 26.8942C28.8474 24.0751 32.3977 22.1553 36.2627 21.3775C40.1278 20.5997 44.1341 20.9989 47.7749 22.5246C51.4157 24.0503 54.5276 26.6339 56.717 29.9488C58.9064 33.2638 60.075 37.161 60.075 41.1479C60.075 43.795 59.5596 46.4162 58.5583 48.8619C57.5569 51.3075 56.0893 53.5297 54.2391 55.4015C52.3888 57.2733 50.1923 58.7581 47.7749 59.7711C45.3575 60.7841 42.7665 61.3055 40.1499 61.3055V61.3055ZM40.1499 11.7804C34.4025 11.7804 28.7841 13.505 24.0056 16.7359C19.2272 19.9668 15.5032 24.559 13.305 29.9314C11.1067 35.3039 10.5328 41.2152 11.6559 46.9177C12.7791 52.6202 15.5488 57.8575 19.6146 61.9672C23.6805 66.0769 28.8598 68.8743 34.4975 70.0056C40.1351 71.1368 45.9777 70.551 51.2863 68.3223C56.5948 66.0936 61.1306 62.3221 64.32 57.485C67.5095 52.6479 69.2092 46.9624 69.2041 41.1479C69.1905 33.3589 66.1243 25.8932 60.6778 20.388C55.2313 14.8827 47.849 11.7873 40.1499 11.7804V11.7804ZM40.1499 61.3055C36.2091 61.3055 32.3568 60.1233 29.0802 57.9084C25.8035 55.6934 23.2497 52.5452 21.7416 48.8619C20.2335 45.1785 19.8389 41.1255 20.6077 37.2153C21.3765 33.3051 23.2742 29.7133 26.0608 26.8942C28.8474 24.0751 32.3977 22.1553 36.2627 21.3775C40.1278 20.5997 44.1341 20.9989 47.7749 22.5246C51.4157 24.0503 54.5276 26.6339 56.717 29.9488C58.9064 33.2638 60.075 37.161 60.075 41.1479C60.075 43.795 59.5596 46.4162 58.5583 48.8619C57.5569 51.3075 56.0893 53.5297 54.2391 55.4015C52.3888 57.2733 50.1923 58.7581 47.7749 59.7711C45.3575 60.7841 42.7665 61.3055 40.1499 61.3055V61.3055ZM40.1499 11.7804C34.4025 11.7804 28.7841 13.505 24.0056 16.7359C19.2272 19.9668 15.5032 24.559 13.305 29.9314C11.1067 35.3039 10.5328 41.2152 11.6559 46.9177C12.7791 52.6202 15.5488 57.8575 19.6146 61.9672C23.6805 66.0769 28.8598 68.8743 34.4975 70.0056C40.1351 71.1368 45.9777 70.551 51.2863 68.3223C56.5948 66.0936 61.1306 62.3221 64.32 57.485C67.5095 52.6479 69.2092 46.9624 69.2041 41.1479C69.1905 33.3589 66.1243 25.8932 60.6778 20.388C55.2313 14.8827 47.849 11.7873 40.1499 11.7804V11.7804ZM40.1499 61.3055C36.2091 61.3055 32.3568 60.1233 29.0802 57.9084C25.8035 55.6934 23.2497 52.5452 21.7416 48.8619C20.2335 45.1785 19.8389 41.1255 20.6077 37.2153C21.3765 33.3051 23.2742 29.7133 26.0608 26.8942C28.8474 24.0751 32.3977 22.1553 36.2627 21.3775C40.1278 20.5997 44.1341 20.9989 47.7749 22.5246C51.4157 24.0503 54.5276 26.6339 56.717 29.9488C58.9064 33.2638 60.075 37.161 60.075 41.1479C60.075 43.795 59.5596 46.4162 58.5583 48.8619C57.5569 51.3075 56.0893 53.5297 54.2391 55.4015C52.3888 57.2733 50.1923 58.7581 47.7749 59.7711C45.3575 60.7841 42.7665 61.3055 40.1499 61.3055V61.3055ZM40.1499 11.7804C34.4025 11.7804 28.7841 13.505 24.0056 16.7359C19.2272 19.9668 15.5032 24.559 13.305 29.9314C11.1067 35.3039 10.5328 41.2152 11.6559 46.9177C12.7791 52.6202 15.5488 57.8575 19.6146 61.9672C23.6805 66.0769 28.8598 68.8743 34.4975 70.0056C40.1351 71.1368 45.9777 70.551 51.2863 68.3223C56.5948 66.0936 61.1306 62.3221 64.32 57.485C67.5095 52.6479 69.2092 46.9624 69.2041 41.1479C69.1905 33.3589 66.1243 25.8932 60.6778 20.388C55.2313 14.8827 47.849 11.7873 40.1499 11.7804V11.7804ZM40.1499 61.3055C36.2091 61.3055 32.3568 60.1233 29.0802 57.9084C25.8035 55.6934 23.2497 52.5452 21.7416 48.8619C20.2335 45.1785 19.8389 41.1255 20.6077 37.2153C21.3765 33.3051 23.2742 29.7133 26.0608 26.8942C28.8474 24.0751 32.3977 22.1553 36.2627 21.3775C40.1278 20.5997 44.1341 20.9989 47.7749 22.5246C51.4157 24.0503 54.5276 26.6339 56.717 29.9488C58.9064 33.2638 60.075 37.161 60.075 41.1479C60.075 43.795 59.5596 46.4162 58.5583 48.8619C57.5569 51.3075 56.0893 53.5297 54.2391 55.4015C52.3888 57.2733 50.1923 58.7581 47.7749 59.7711C45.3575 60.7841 42.7665 61.3055 40.1499 61.3055V61.3055ZM40.1499 11.7804C34.4025 11.7804 28.7841 13.505 24.0056 16.7359C19.2272 19.9668 15.5032 24.559 13.305 29.9314C11.1067 35.3039 10.5328 41.2152 11.6559 46.9177C12.7791 52.6202 15.5488 57.8575 19.6146 61.9672C23.6805 66.0769 28.8598 68.8743 34.4975 70.0056C40.1351 71.1368 45.9777 70.551 51.2863 68.3223C56.5948 66.0936 61.1306 62.3221 64.32 57.485C67.5095 52.6479 69.2092 46.9624 69.2041 41.1479C69.1905 33.3589 66.1243 25.8932 60.6778 20.388C55.2313 14.8827 47.849 11.7873 40.1499 11.7804V11.7804ZM40.1499 61.3055C36.2091 61.3055 32.3568 60.1233 29.0802 57.9084C25.8035 55.6934 23.2497 52.5452 21.7416 48.8619C20.2335 45.1785 19.8389 41.1255 20.6077 37.2153C21.3765 33.3051 23.2742 29.7133 26.0608 26.8942C28.8474 24.0751 32.3977 22.1553 36.2627 21.3775C40.1278 20.5997 44.1341 20.9989 47.7749 22.5246C51.4157 24.0503 54.5276 26.6339 56.717 29.9488C58.9064 33.2638 60.075 37.161 60.075 41.1479C60.075 43.795 59.5596 46.4162 58.5583 48.8619C57.5569 51.3075 56.0893 53.5297 54.2391 55.4015C52.3888 57.2733 50.1923 58.7581 47.7749 59.7711C45.3575 60.7841 42.7665 61.3055 40.1499 61.3055V61.3055Z" fill="#FF0000"/>
</svg>
