<svg id="Layer_1" data-name="Layer 1" xmlns="http://www.w3.org/2000/svg" viewBox="0 0 1944.97 1262.14"><defs><style>.cls-1{fill:#0072b9;}</style></defs><title>The extraordnary</title><path class="cls-1" d="M195.88,397.32H99.13V106.5h-74V21.39H269.35V106.5H195.88Zm-95.75-1h94.75V105.5h73.47V22.39H26.16V105.5h74Z"/><path class="cls-1" d="M611.84,397.32H515.08v-150H393.47v150H296.72V21.39h96.75V162.24H515.08V21.39h96.76Zm-95.76-1h94.76V22.39H516.08V163.24H392.47V22.39H297.72V396.32h94.75v-150H516.08Z"/><path class="cls-1" d="M877.83,397.32H668.6V21.39H877.83V106.5H761.3v57.26h113v85.11h-113v63.34H877.83Zm-208.23-1H876.83V313.21H760.3V247.87h113V164.76h-113V105.5H876.83V22.39H669.6Z"/><path class="cls-1" d="M1281.63,397.32H1072.39V21.39h209.24V106.5H1165.1v57.26h113v85.11h-113v63.34h116.53Zm-208.24-1h207.24V313.21H1164.1V247.87h113V164.76h-113V105.5h116.53V22.39H1073.39Z"/><path class="cls-1" d="M1676.23,397.32H1566.6l-.15-.24-80.62-132-76.74,132.27H1301l.51-.78,131-199.34L1316.17,21.39h109.64l.14.25,63.91,106.18,62-106.43H1661L1546.2,199.22Zm-109.07-1h107.22L1545,199.23l.18-.28,114-176.56H1552.47l-62.59,107.39L1425.24,22.39H1318L1433.72,197.2l-.18.27L1302.83,396.32h105.69L1485.8,263.1Z"/><path class="cls-1" d="M1846,397.32h-96.76V106.5h-74V21.39h244.2V106.5H1846Zm-95.76-1H1845V105.5h73.47V22.39H1676.3V105.5h74Z"/><path class="cls-1" d="M325.61,819.48H214.88l-.15-.21L128.24,698.39H128V819.48H35.28V443.55H154.34c34.6,0,82,0,115.83,27,29.42,23.64,46.29,61.08,46.29,102.74,0,29-8.7,56.43-24.48,77.37-16.66,22.1-40.27,36.28-68.32,41Zm-110.22-1H323.53L221.81,690.94l.85-.13c28.16-4.58,51.85-18.68,68.52-40.79,15.66-20.77,24.28-48,24.28-76.77,0-41.35-16.74-78.51-45.92-101.95-33.56-26.75-80.75-26.75-115.2-26.75H36.28V818.48H127V697.39h1.76l.15.21ZM161.43,633H127V527.66h35.45c39.6,0,62.32,18.65,62.32,51.16C224.76,613.78,202.27,633,161.43,633ZM128,632h33.44c40.19,0,62.33-18.9,62.33-53.21,0-45.27-42.88-50.16-61.32-50.16H128Z"/><path class="cls-1" d="M702.77,819.48h-105l-18.24-54.22H450.07l-19.76,54.22H326.37l.27-.69,150.6-375.24h76.17l.13.32Zm-104.25-1H701.29L552.73,444.55H477.92L327.84,818.48H429.61l19.76-54.22H580.28ZM555.26,689.27H475.39L514.2,560.08h2.26Zm-78.53-1h77.19L515.71,561.08h-.77Z"/><path class="cls-1" d="M886,826.57c-52,0-101.25-19.42-138.6-54.67-38-35.9-59-84.14-59-135.83,0-28.71,4.82-55,14.73-80.23,5-13.17,13.42-27.75,24.38-42.17,19.07-25.09,42.61-44.49,70-57.65,27-13,56.91-19.56,89-19.56,53.4,0,103.28,19.89,140.44,56,37.51,36.45,58.16,85.83,58.16,139.05,0,53.44-20.67,102.89-58.22,139.25C989.66,806.75,939.63,826.57,886,826.57Zm.5-389.11c-31.94,0-61.74,6.55-88.57,19.46-27.22,13.09-50.64,32.39-69.61,57.35C717.37,528.62,709,543.12,704,556.2c-9.87,25.16-14.66,51.28-14.66,79.87,0,51.42,20.84,99.4,58.68,135.11,37.16,35.07,86.14,54.39,137.91,54.39,53.41,0,103.2-19.72,140.18-55.53,37.35-36.17,57.92-85.36,57.92-138.53C1084.05,522.7,997.26,437.46,886.45,437.46Zm1.52,305c-29.52,0-56.31-11.89-75.42-33.48-18.34-20.71-28.43-48.59-28.43-78.48,0-29.33,10-56.71,28.31-77.09,19-21.18,45.44-32.85,74.53-32.85a97.12,97.12,0,0,1,74.28,33.8c18.09,20.8,28.06,48.38,28.06,77.66,0,28.37-10.18,56.35-27.93,76.77C942.5,730.51,916.43,742.46,888,742.46Zm-1-220.9c-28.81,0-55,11.55-73.79,32.52-18.09,20.2-28,47.34-28,76.42,0,29.65,10,57.29,28.18,77.82,18.92,21.37,45.44,33.14,74.67,33.14,28.17,0,54-11.83,72.65-33.33,17.59-20.23,27.68-48,27.68-76.11,0-29-9.88-56.39-27.81-77A96.14,96.14,0,0,0,887,521.56Z"/><path class="cls-1" d="M1415.93,819.48H1305.2l-.15-.21-86.49-120.88h-.26V819.48h-92.7V443.55h119.05c34.61,0,82,0,115.83,27,29.42,23.64,46.3,61.08,46.3,102.74,0,29-8.7,56.43-24.49,77.37-16.65,22.1-40.26,36.28-68.32,41Zm-110.22-1h108.14L1312.13,690.94l.84-.13c28.17-4.58,51.86-18.68,68.52-40.79,15.66-20.77,24.29-48,24.29-76.77,0-41.35-16.74-78.51-45.92-101.95-33.56-26.75-80.75-26.75-115.21-26.75H1126.6V818.48h90.7V697.39h1.77l.15.21Zm-54-185.45H1217.3V527.66h35.46c39.6,0,62.31,18.65,62.31,51.16C1315.07,613.78,1292.58,633,1251.75,633Zm-33.45-1h33.45c40.19,0,62.32-18.9,62.32-53.21,0-45.27-42.87-50.16-61.31-50.16H1218.3Z"/><path class="cls-1" d="M1573,819.48H1441.24V443.55h124.63c69.21,0,123.94,11.93,166.08,70.13,22.6,31.55,34.55,71.94,34.55,116.82C1766.5,752.36,1697.77,819.48,1573,819.48Zm-130.73-1H1573c124.15,0,192.53-66.76,192.53-188,0-44.67-11.88-84.86-34.36-116.24-41.89-57.85-96.37-69.71-165.27-69.71H1442.24Zm136.3-83.11H1537V527.66h42c30.6,0,54.13,10,69.92,29.7,14.25,17.77,21.77,43.59,21.77,74.66C1670.74,699.63,1638.86,735.37,1578.54,735.37Zm-40.54-1h40.54c41.6,0,91.2-17.76,91.2-102.35,0-30.84-7.45-56.45-21.55-74-15.59-19.46-38.86-29.32-69.14-29.32h-41Z"/><path class="cls-1" d="M1908.86,819.48H1812.1V443.55h96.76Zm-95.76-1h94.76V444.55H1813.1Z"/><path class="cls-1" d="M628.81,1241.63H545l-.15-.23L402.16,1013.79l-.32.16,2.53,227.68H311.66V865.71H395l.14.24,144.57,235,.42-.41L536.1,865.71h92.71Zm-83.31-1h82.31V866.71H537.12l4,234.28-1.62,1.62L394.47,866.71H312.66v373.92h90.7l-2.53-227.29,1.7-.85Z"/><path class="cls-1" d="M1032.84,1241.63H927.89l-18.24-54.21H780.15l-19.76,54.21H656.45l.27-.68,150.6-375.24h76.17l.13.32Zm-104.24-1h102.77L882.81,866.71H808L657.92,1240.63H759.69l19.76-54.21H910.37Zm-43.26-129.21H805.47l38.81-129.18h2.26Zm-78.53-1H884L845.79,983.24H845Z"/><path class="cls-1" d="M1350.31,1241.63H1239.58l-.15-.2-86.49-120.89h-.26v121.09H1060V865.71H1179c34.6,0,82,0,115.82,27,29.42,23.64,46.3,61.08,46.3,102.74,0,28.95-8.7,56.43-24.49,77.37-16.65,22.1-40.26,36.27-68.32,41Zm-110.22-1h108.14L1246.51,1113.1l.84-.14c28.17-4.57,51.86-18.67,68.53-40.78,15.65-20.77,24.28-48,24.28-76.77,0-41.35-16.74-78.51-45.92-102-33.56-26.74-80.75-26.74-115.2-26.74H1061v373.92h90.7V1119.54h1.77l.15.21Zm-54-185.44h-34.45V949.82h35.46c39.6,0,62.31,18.64,62.31,51.16C1249.45,1035.94,1227,1055.19,1186.13,1055.19Zm-33.45-1h33.45c40.19,0,62.32-18.9,62.32-53.21,0-45.28-42.87-50.16-61.31-50.16h-34.46Z"/><path class="cls-1" d="M1550.92,1241.63h-96.76V1105L1341.9,865.71h105l.12.33,55.27,149.21,55.89-149.54h104l-.33.71L1550.92,1105Zm-95.76-1h94.76v-135.9l0-.1,110.63-237.92H1558.87l-56.59,151.41L1446.2,866.71H1343.47l111.69,238Z"/></svg>